<svg width="202" height="83" viewBox="0 0 202 83" fill="none" xmlns="http://www.w3.org/2000/svg">
<path d="M37.9648 4.9502C39.9175 2.99757 43.0825 2.99757 45.0352 4.9502L78.0498 37.9648C80.0024 39.9175 80.0024 43.0825 78.0498 45.0352L45.0352 78.0498C43.0825 80.0024 39.9175 80.0024 37.9648 78.0498L4.9502 45.0352C2.99757 43.0825 2.99757 39.9175 4.9502 37.9648L37.9648 4.9502Z" stroke="#00FFF0" stroke-width="2"/>
<path d="M23.056 40.736C23.056 38.5173 23.536 36.544 24.496 34.816C25.456 33.0667 26.7893 31.712 28.496 30.752C30.224 29.7707 32.176 29.28 34.352 29.28C37.0187 29.28 39.3013 29.984 41.2 31.392C43.0987 32.8 44.368 34.72 45.008 37.152H38.992C38.544 36.2133 37.904 35.4987 37.072 35.008C36.2613 34.5173 35.3333 34.272 34.288 34.272C32.6027 34.272 31.2373 34.8587 30.192 36.032C29.1467 37.2053 28.624 38.7733 28.624 40.736C28.624 42.6987 29.1467 44.2667 30.192 45.44C31.2373 46.6133 32.6027 47.2 34.288 47.2C35.3333 47.2 36.2613 46.9547 37.072 46.464C37.904 45.9733 38.544 45.2587 38.992 44.32H45.008C44.368 46.752 43.0987 48.672 41.2 50.08C39.3013 51.4667 37.0187 52.16 34.352 52.16C32.176 52.16 30.224 51.68 28.496 50.72C26.7893 49.7387 25.456 48.384 24.496 46.656C23.536 44.928 23.056 42.9547 23.056 40.736ZM66.471 42.784C66.471 43.296 66.439 43.8293 66.375 44.384H53.991C54.0763 45.4933 54.4283 46.3467 55.047 46.944C55.687 47.52 56.4657 47.808 57.383 47.808C58.7483 47.808 59.6977 47.232 60.231 46.08H66.055C65.7563 47.2533 65.2123 48.3093 64.423 49.248C63.655 50.1867 62.6843 50.9227 61.511 51.456C60.3377 51.9893 59.0257 52.256 57.575 52.256C55.8257 52.256 54.2683 51.8827 52.903 51.136C51.5377 50.3893 50.471 49.3227 49.703 47.936C48.935 46.5493 48.551 44.928 48.551 43.072C48.551 41.216 48.9243 39.5947 49.671 38.208C50.439 36.8213 51.5057 35.7547 52.871 35.008C54.2363 34.2613 55.8043 33.888 57.575 33.888C59.303 33.888 60.839 34.2507 62.183 34.976C63.527 35.7013 64.5723 36.736 65.319 38.08C66.087 39.424 66.471 40.992 66.471 42.784ZM60.871 41.344C60.871 40.4053 60.551 39.6587 59.911 39.104C59.271 38.5493 58.471 38.272 57.511 38.272C56.5937 38.272 55.815 38.5387 55.175 39.072C54.5563 39.6053 54.1723 40.3627 54.023 41.344H60.871ZM76.1098 37.12C76.7498 36.1387 77.5498 35.3707 78.5098 34.816C79.4698 34.24 80.5364 33.952 81.7098 33.952V39.744H80.2058C78.8404 39.744 77.8164 40.0427 77.1338 40.64C76.4511 41.216 76.1098 42.24 76.1098 43.712V52H70.6378V34.144H76.1098V37.12ZM95.5573 47.36V52H92.7733C90.7893 52 89.2426 51.52 88.1333 50.56C87.0239 49.5787 86.4693 47.9893 86.4693 45.792V38.688H84.2933V34.144H86.4693V29.792H91.9413V34.144H95.5253V38.688H91.9413V45.856C91.9413 46.3893 92.0693 46.7733 92.3253 47.008C92.5813 47.2427 93.0079 47.36 93.6053 47.36H95.5573ZM98.9573 40.736C98.9573 38.5173 99.4373 36.544 100.397 34.816C101.357 33.0667 102.691 31.712 104.397 30.752C106.125 29.7707 108.077 29.28 110.253 29.28C112.92 29.28 115.203 29.984 117.101 31.392C119 32.8 120.269 34.72 120.909 37.152H114.893C114.445 36.2133 113.805 35.4987 112.973 35.008C112.163 34.5173 111.235 34.272 110.189 34.272C108.504 34.272 107.139 34.8587 106.093 36.032C105.048 37.2053 104.525 38.7733 104.525 40.736C104.525 42.6987 105.048 44.2667 106.093 45.44C107.139 46.6133 108.504 47.2 110.189 47.2C111.235 47.2 112.163 46.9547 112.973 46.464C113.805 45.9733 114.445 45.2587 114.893 44.32H120.909C120.269 46.752 119 48.672 117.101 50.08C115.203 51.4667 112.92 52.16 110.253 52.16C108.077 52.16 106.125 51.68 104.397 50.72C102.691 49.7387 101.357 48.384 100.397 46.656C99.4373 44.928 98.9573 42.9547 98.9573 40.736ZM136.516 33.952C138.564 33.952 140.207 34.6347 141.444 36C142.682 37.344 143.3 39.2 143.3 41.568V52H137.86V42.304C137.86 41.1093 137.551 40.1813 136.932 39.52C136.314 38.8587 135.482 38.528 134.436 38.528C133.391 38.528 132.559 38.8587 131.94 39.52C131.322 40.1813 131.012 41.1093 131.012 42.304V52H125.54V28.32H131.012V36.544C131.567 35.7547 132.324 35.1253 133.284 34.656C134.244 34.1867 135.322 33.952 136.516 33.952ZM147.295 43.04C147.295 41.2053 147.636 39.5947 148.319 38.208C149.023 36.8213 149.972 35.7547 151.167 35.008C152.361 34.2613 153.695 33.888 155.167 33.888C156.425 33.888 157.524 34.144 158.463 34.656C159.423 35.168 160.159 35.84 160.671 36.672V34.144H166.143V52H160.671V49.472C160.137 50.304 159.391 50.976 158.431 51.488C157.492 52 156.393 52.256 155.135 52.256C153.684 52.256 152.361 51.8827 151.167 51.136C149.972 50.368 149.023 49.2907 148.319 47.904C147.636 46.496 147.295 44.8747 147.295 43.04ZM160.671 43.072C160.671 41.7067 160.287 40.6293 159.519 39.84C158.772 39.0507 157.855 38.656 156.767 38.656C155.679 38.656 154.751 39.0507 153.983 39.84C153.236 40.608 152.863 41.6747 152.863 43.04C152.863 44.4053 153.236 45.4933 153.983 46.304C154.751 47.0933 155.679 47.488 156.767 47.488C157.855 47.488 158.772 47.0933 159.519 46.304C160.287 45.5147 160.671 44.4373 160.671 43.072ZM174.134 32.288C173.174 32.288 172.384 32.0107 171.766 31.456C171.168 30.88 170.87 30.176 170.87 29.344C170.87 28.4907 171.168 27.7867 171.766 27.232C172.384 26.656 173.174 26.368 174.134 26.368C175.072 26.368 175.84 26.656 176.438 27.232C177.056 27.7867 177.366 28.4907 177.366 29.344C177.366 30.176 177.056 30.88 176.438 31.456C175.84 32.0107 175.072 32.288 174.134 32.288ZM176.854 34.144V52H171.382V34.144H176.854ZM192.979 33.952C195.07 33.952 196.734 34.6347 197.971 36C199.23 37.344 199.859 39.2 199.859 41.568V52H194.419V42.304C194.419 41.1093 194.11 40.1813 193.491 39.52C192.872 38.8587 192.04 38.528 190.995 38.528C189.95 38.528 189.118 38.8587 188.499 39.52C187.88 40.1813 187.571 41.1093 187.571 42.304V52H182.099V34.144H187.571V36.512C188.126 35.7227 188.872 35.104 189.811 34.656C190.75 34.1867 191.806 33.952 192.979 33.952Z" fill="#21D1EC"/>
</svg>
